<svg width="39" height="45" viewBox="0 0 39 45" fill="none" xmlns="http://www.w3.org/2000/svg">
<path d="M38.1814 35.0673C37.5067 36.5955 36.6732 38.0527 35.6938 39.4164C34.3854 41.2322 33.3109 42.487 32.4874 43.1854C31.2083 44.3265 29.8341 44.9137 28.365 44.9468C27.3124 44.9468 26.0406 44.6556 24.5593 44.0637C23.073 43.4742 21.7086 43.1854 20.4587 43.1854C19.1504 43.1854 17.747 43.4742 16.2437 44.0637C14.7429 44.6556 13.5295 44.9657 12.6012 44.9942C11.1954 45.0533 9.78959 44.452 8.38864 43.1854C7.49447 42.4278 6.37615 41.1257 5.03367 39.2838C3.59618 37.3211 2.41451 35.0365 1.48866 32.4394C0.497033 29.6291 0 26.9113 0 24.2786C0 21.2648 0.67002 18.6629 2.0125 16.4848C3.02787 14.7742 4.4795 13.3466 6.22753 12.3394C7.95122 11.3348 9.91893 10.7938 11.9288 10.7721C13.0495 10.7721 14.5187 11.1083 16.3387 11.7712C18.1587 12.4341 19.3282 12.7702 19.8374 12.7702C20.2224 12.7702 21.5161 12.3749 23.7187 11.5912C25.797 10.8644 27.5512 10.5637 28.9887 10.6821C32.887 10.9875 35.8131 12.479 37.7599 15.1685C34.2758 17.2211 32.5532 20.0929 32.5873 23.7791C32.6165 26.6508 33.691 29.0396 35.7961 30.936C36.7267 31.8014 37.8126 32.4939 39 32.9791C38.7417 33.706 38.4689 34.3996 38.1814 35.0673ZM29.247 0.902014C29.247 3.15113 28.3991 5.25346 26.7155 7.19717C24.6786 9.50784 22.2178 10.8455 19.5499 10.6348C19.5151 10.3519 19.498 10.0673 19.4988 9.78247C19.4988 7.62095 20.4636 5.31028 22.1862 3.41866C23.0438 2.46219 24.1353 1.66435 25.4583 1.02986C26.7788 0.404841 28.0263 0.0591873 29.2007 0C29.2323 0.303039 29.247 0.60371 29.247 0.902014Z" fill="#0071E4"/>
</svg>
